<svg width="9" height="10" viewBox="0 0 9 10" version="1.1" xmlns="http://www.w3.org/2000/svg" xmlns:xlink="http://www.w3.org/1999/xlink"><title>icon-attach</title><desc>Created using Figma</desc><use xlink:href="#a" fill="#BDBDBD"/><defs><path id="a" d="M4.145 4.46a.355.355 0 0 0 0-.499.35.35 0 0 0-.495 0L1.795 5.828a1.651 1.651 0 0 0-.487 1.178c0 .448.17.86.487 1.179.65.654 1.7.654 2.342 0L8.325 3.97A2.318 2.318 0 0 0 9 2.327c0-.62-.24-1.204-.675-1.643a2.3 2.3 0 0 0-3.274 0L.871 4.89A2.976 2.976 0 0 0 0 7.006c0 .8.308 1.557.872 2.117A2.938 2.938 0 0 0 2.974 10c.795 0 1.547-.31 2.103-.877l1.855-1.867a.355.355 0 0 0 0-.499.35.35 0 0 0-.496 0L4.58 8.624a2.256 2.256 0 0 1-3.213 0A2.285 2.285 0 0 1 .7 7.006c0-.61.24-1.187.667-1.617l4.179-4.206a1.606 1.606 0 0 1 2.273 0 1.627 1.627 0 0 1 0 2.288L3.633 7.686a.96.96 0 0 1-1.35 0 .96.96 0 0 1 0-1.36L4.145 4.46z"/></defs></svg>