<svg width="51" height="59" viewBox="0 0 51 59" version="1.1" xmlns="http://www.w3.org/2000/svg" xmlns:xlink="http://www.w3.org/1999/xlink">
<title>Icon-docs</title>
<desc></desc>
<g id="Canvas" transform="translate(-9628 -2776)">
<g id="Icon-docs">
<use xlink:href="#path0_fill" transform="translate(9628 2776)" fill="#2B2B2B"/>
<use xlink:href="#path1_fill" transform="translate(9628 2776)" fill="#2B2B2B"/>
<use xlink:href="#path2_fill" transform="translate(9628 2776)" fill="#2B2B2B"/>
<use xlink:href="#path3_fill" transform="translate(9628 2776)" fill="#2B2B2B"/>
<use xlink:href="#path4_fill" transform="translate(9628 2776)" fill="#2B2B2B"/>
<use xlink:href="#path5_fill" transform="translate(9628 2776)" fill="#2B2B2B"/>
<use xlink:href="#path6_fill" transform="translate(9628 2776)" fill="#2B2B2B"/>
</g>
</g>
<defs>
<path id="path0_fill" d="M 45.5149 5.36819L 45.5149 0L 12.5534 0L 0 12.5162L 0 53.6318L 5.48499 53.6318L 5.48499 59L 51 59L 51 5.36819L 45.5149 5.36819ZM 12.0535 2.90529L 12.0535 12.0176L 2.91396 12.0176L 12.0535 2.90529ZM 1.70709 51.9298L 1.70709 13.7196L 13.7605 13.7196L 13.7605 1.7019L 43.8079 1.7019L 43.8079 51.9297L 1.70709 51.9298ZM 49.293 57.2981L 7.19208 57.2981L 7.19208 53.6317L 45.5149 53.6317L 45.5149 7.07009L 49.2929 7.07009L 49.293 57.2981Z"/>
<path id="path1_fill" d="M 37.8144 24.755L 29.267 24.755L 29.267 26.4569L 37.8144 26.4569L 37.8144 24.755Z"/>
<path id="path2_fill" d="M 25.5003 24.755L 8.12418 24.755L 8.12418 26.4569L 25.5003 26.4569L 25.5003 24.755Z"/>
<path id="path3_fill" d="M 37.8146 30.6822L 8.12418 30.6822L 8.12418 32.3841L 37.8146 32.3841L 37.8146 30.6822Z"/>
<path id="path4_fill" d="M 37.8146 36.6095L 8.12418 36.6095L 8.12418 38.3114L 37.8146 38.3114L 37.8146 36.6095Z"/>
<path id="path5_fill" d="M 37.8146 42.5368L 8.12418 42.5368L 8.12418 44.2387L 37.8146 44.2387L 37.8146 42.5368Z"/>
<path id="path6_fill" d="M 25.7577 12.5771C 26.6546 11.7989 27.2232 10.6542 27.2232 9.37852C 27.2232 7.04018 25.3151 5.13778 22.9698 5.13778C 20.6245 5.13778 18.7164 7.04018 18.7164 9.37852C 18.7164 10.6542 19.2849 11.799 20.1818 12.5771C 18.1459 13.5986 16.7452 15.7004 16.7452 18.1234L 16.7452 22.5932L 29.1945 22.5932L 29.1945 18.1234C 29.1945 15.7003 27.7935 13.5985 25.7577 12.5771ZM 22.9698 6.83967C 24.182 6.83967 25.1985 7.68895 25.4537 8.82182C 23.3986 8.71154 21.8232 8.24657 20.9031 7.89787C 21.366 7.25763 22.1196 6.83967 22.9698 6.83967ZM 25.2455 10.5153C 24.8264 11.3457 23.964 11.9172 22.9698 11.9172C 21.6206 11.9172 20.5139 10.8656 20.4291 9.54134C 21.4757 9.92715 23.126 10.3898 25.2455 10.5153ZM 27.4874 20.8912L 18.4522 20.8912L 18.4522 18.1233C 18.4522 15.9306 20.0321 14.1 22.1163 13.7008L 22.1163 17.9155L 23.8233 17.9155L 23.8233 13.7008C 25.9075 14.1 27.4875 15.9307 27.4875 18.1233L 27.4874 20.8912Z"/>
</defs>
</svg>
