<svg width="59" height="59" viewBox="0 0 59 59" version="1.1" xmlns="http://www.w3.org/2000/svg" xmlns:xlink="http://www.w3.org/1999/xlink">
<title>Icon-interior</title>
<desc></desc>
<g id="Canvas" transform="translate(-9624 -2449)">
<g id="Icon-interior">
<use xlink:href="#path0_fill" transform="translate(9624 2449)" fill="#2B2B2B"/>
<use xlink:href="#path1_fill" transform="translate(9624 2449)" fill="#2B2B2B"/>
<use xlink:href="#path2_fill" transform="translate(9624 2449)" fill="#2B2B2B"/>
</g>
</g>
<defs>
<path id="path0_fill" d="M 29.5 0C 13.2337 0 0 13.2337 0 29.5C 0 45.7663 13.2337 59 29.5 59C 45.7663 59 59 45.7663 59 29.5C 59 13.2337 45.7663 0 29.5 0ZM 29.5 56.9655C 14.3554 56.9655 2.03446 44.6446 2.03446 29.5C 2.03446 14.3554 14.3554 2.03446 29.5 2.03446C 44.6446 2.03446 56.9655 14.3554 56.9655 29.5C 56.9655 44.6446 44.6446 56.9655 29.5 56.9655Z"/>
<path id="path1_fill" d="M 29.5005 6.10359C 16.5996 6.10359 6.10401 16.5991 6.10401 29.5001C 6.10401 37.0631 9.71223 43.7983 15.2965 48.0781C 15.3637 48.3241 15.5217 48.5456 15.7585 48.6858C 15.9372 48.7916 16.1349 48.8355 16.3276 48.8256C 20.0822 51.3929 24.6187 52.8967 29.5005 52.8967C 34.3836 52.8967 38.9214 51.3921 42.6766 48.8234C 42.6995 48.8249 42.7222 48.8278 42.7451 48.8278C 42.9212 48.8278 43.0995 48.7819 43.262 48.6858C 43.5053 48.5419 43.6663 48.3124 43.7301 48.0585C 49.2998 43.7777 52.897 37.0516 52.897 29.5002C 52.897 16.5991 42.4015 6.10359 29.5005 6.10359ZM 29.5005 8.13806C 36.5549 8.13806 42.8188 11.5772 46.7112 16.8646C 43.3108 16.2585 36.6234 15.2587 29.5005 15.2587C 22.3776 15.2587 15.6902 16.2586 12.2898 16.8646C 16.1822 11.5771 22.4461 8.13806 29.5005 8.13806ZM 8.13848 29.5001C 8.13848 28.8275 8.17362 28.1631 8.2347 27.5063C 10.1869 27.9306 14.5362 29.4036 15.2476 32.0947C 15.7776 34.0997 14.2197 36.7352 10.7497 39.7247C 9.08605 36.686 8.13848 33.2019 8.13848 29.5001ZM 29.5005 50.8621C 25.1733 50.8621 21.1452 49.5652 17.777 47.3448C 19.5228 44.7007 24.6422 37.6379 29.5103 37.6379C 34.3728 37.6379 39.4863 44.685 41.2376 47.3361C 37.8668 49.5618 33.8334 50.8621 29.5005 50.8621ZM 42.8854 46.1318C 40.924 43.1639 35.3537 35.6035 29.5103 35.6035C 23.6602 35.6035 18.0839 43.1811 16.1284 46.1418C 14.4749 44.8105 13.0211 43.2412 11.8248 41.482C 11.8321 41.4762 11.8401 41.4722 11.8473 41.4663C 16.1756 37.8036 17.9814 34.4757 17.2146 31.5746C 16.6854 29.5734 14.9962 27.9283 12.1937 26.6851C 10.5663 25.9633 9.0486 25.6017 8.52163 25.4886C 8.94719 23.2583 9.71788 21.1496 10.7803 19.222C 12.6067 18.8471 20.7094 17.2932 29.5005 17.2932C 38.2827 17.2932 46.3931 18.8474 48.2207 19.2221C 49.2864 21.1553 50.0581 23.2707 50.4828 25.5081C 49.8893 25.6397 48.4447 25.9998 46.8997 26.6851C 44.0972 27.9283 42.4079 29.5733 41.8789 31.5746C 41.1142 34.4674 42.908 37.7849 47.2096 41.435C 46.0103 43.2089 44.5486 44.7907 42.8854 46.1318ZM 43.8452 32.0974C 44.5411 29.456 48.772 27.9805 50.7679 27.5267C 50.8279 28.177 50.8627 28.8345 50.8627 29.5001C 50.8627 33.1799 49.9274 36.6452 48.2822 39.6711C 44.8572 36.705 43.3202 34.0899 43.8452 32.0974Z"/>
<path id="path2_fill" d="M 29.5004 21.3621C 26.1349 21.3621 23.3969 24.1001 23.3969 27.4656C 23.3969 30.8312 26.1349 33.5691 29.5004 33.5691C 32.8659 33.5691 35.6039 30.8312 35.6039 27.4656C 35.6039 24.1001 32.8659 21.3621 29.5004 21.3621ZM 29.5004 31.5346C 27.2568 31.5346 25.4315 29.7092 25.4315 27.4656C 25.4315 25.222 27.2568 23.3967 29.5004 23.3967C 31.744 23.3967 33.5693 25.222 33.5693 27.4656C 33.5693 29.7092 31.744 31.5346 29.5004 31.5346Z"/>
</defs>
</svg>
