<svg width="24" height="24" viewBox="0 0 24 24" version="1.1" xmlns="http://www.w3.org/2000/svg" xmlns:xlink="http://www.w3.org/1999/xlink"><title>Icon-check</title><desc>Created using Figma</desc><g fill="#1B98DE"><use xlink:href="#a"/><use xlink:href="#b"/></g><defs><path id="a" d="M21.98 9.97c-.535 0-.97.455-.97 1.015v1.02c0 2.664-.994 5.168-2.796 7.05-1.8 1.881-4.194 2.917-6.739 2.917h-.006c-5.258-.003-9.533-4.479-9.53-9.978.001-2.663.995-5.167 2.797-7.05 1.8-1.88 4.194-2.916 6.739-2.916h.005c1.344 0 2.648.291 3.876.863.49.228 1.062-.002 1.28-.513.218-.512-.002-1.111-.49-1.34A10.98 10.98 0 0 0 11.48 0h-.006c-3.063 0-5.943 1.246-8.11 3.51C1.198 5.775.003 8.788 0 11.993c-.002 3.205 1.19 6.22 3.356 8.487 2.166 2.268 5.047 3.518 8.112 3.52h.007c3.062 0 5.942-1.246 8.11-3.51 2.168-2.265 3.363-5.278 3.365-8.484v-1.021c0-.56-.434-1.014-.97-1.014z"/><path id="b" d="M23.716 1.402a.94.94 0 0 0-1.371 0L11.475 12.77l-2.467-2.58a.94.94 0 0 0-1.37 0 1.047 1.047 0 0 0 0 1.434l3.151 3.296c.19.198.438.297.686.297a.945.945 0 0 0 .685-.297L23.716 2.836a1.047 1.047 0 0 0 0-1.434z"/></defs></svg>