<svg width="65" height="59" viewBox="0 0 65 59" version="1.1" xmlns="http://www.w3.org/2000/svg" xmlns:xlink="http://www.w3.org/1999/xlink">
<title>Icon-body</title>
<desc></desc>
<g id="Canvas" transform="translate(-9256 -2449)">
<g id="Icon-body">
<use xlink:href="#path0_fill" transform="translate(9256 2449)" fill="#2B2B2B"/>
<use xlink:href="#path1_fill" transform="translate(9256 2449)" fill="#2B2B2B"/>
<use xlink:href="#path2_fill" transform="translate(9256 2449)" fill="#2B2B2B"/>
</g>
</g>
<defs>
<path id="path0_fill" d="M 63.8983 0L 30.2966 0C 30.0664 0 29.8417 0.0879213 29.6546 0.251093L 0.459697 25.7283C 0.171006 25.9802 0 26.3858 0 26.8182L 0 57.6591C 0 58.3995 0.49334 59 1.1017 59L 63.8983 59C 64.5067 59 65 58.3995 65 57.6591L 65 1.34092C 65 0.600307 64.5067 0 63.8983 0ZM 62.7966 56.3182L 2.2034 56.3182L 2.2034 27.5069L 30.6508 2.68183L 62.7966 2.68183L 62.7966 56.3182Z"/>
<path id="path1_fill" d="M 59.4916 5.36367L 31.9493 5.36367C 31.711 5.36367 31.4788 5.45777 31.2881 5.63176L 9.25426 25.7453C 8.87506 26.0918 8.7203 26.6946 8.87023 27.2422C 9.02029 27.7896 9.44127 28.1589 9.91544 28.1589L 59.4916 28.1589C 60.1 28.1589 60.5933 27.5585 60.5933 26.818L 60.5933 6.70458C 60.5933 5.96397 60.1001 5.36367 59.4916 5.36367ZM 58.3899 25.4773L 13.2205 25.4773L 32.3164 8.04535L 58.3899 8.04535L 58.3899 25.4773Z"/>
<path id="path2_fill" d="M 58.3897 36.2046L 50.6778 36.2046C 50.0695 36.2046 49.5761 36.8051 49.5761 37.5456L 49.5761 45.591C 49.5761 46.3315 50.0695 46.932 50.6778 46.932C 51.2862 46.932 51.7795 46.3315 51.7795 45.591L 51.7795 38.8865L 58.3897 38.8865C 58.9981 38.8865 59.4914 38.286 59.4914 37.5456C 59.4914 36.8051 58.9982 36.2046 58.3897 36.2046Z"/>
</defs>
</svg>
