<svg width="59" height="59" viewBox="0 0 59 59" version="1.1" xmlns="http://www.w3.org/2000/svg" xmlns:xlink="http://www.w3.org/1999/xlink">
<title>Icon-tech</title>
<desc></desc>
<g id="Canvas" transform="translate(-9256 -2776)">
<g id="Icon-tech">
<use xlink:href="#path0_fill" transform="translate(9256 2776)" fill="#2B2B2B"/>
<use xlink:href="#path1_fill" transform="translate(9256 2776)" fill="#2B2B2B"/>
</g>
</g>
<defs>
<path id="path0_fill" d="M 29.5 0C 13.2335 0 0 13.2336 0 29.5C 0 45.7664 13.2335 59 29.5 59C 45.7665 59 59 45.7664 59 29.5C 59 13.2336 45.7665 0 29.5 0ZM 29.5 56.64C 14.5351 56.64 2.36 44.465 2.36 29.5C 2.36 14.535 14.5351 2.36 29.5 2.36C 44.4649 2.36 56.64 14.535 56.64 29.5C 56.64 44.465 44.4649 56.64 29.5 56.64Z"/>
<path id="path1_fill" d="M 44.8402 10.62C 42.8881 10.62 41.3002 12.2036 41.3002 14.1502L 41.3002 24.78L 37.7602 24.78L 37.7602 14.1502C 37.7602 12.2036 36.1722 10.62 34.2202 10.62C 32.2681 10.62 30.6802 12.2036 30.6802 14.1502L 30.6802 24.78L 27.1402 24.78L 27.1402 14.1502C 27.1402 12.2036 25.5522 10.62 23.6002 10.62C 21.6481 10.62 20.0602 12.2036 20.0602 14.1502L 20.0602 24.78L 16.5202 24.78L 16.5202 18.8706C 16.5202 16.9239 14.9322 15.34 12.9802 15.34C 11.0281 15.34 9.44017 16.9239 9.44017 18.8706L 9.44017 31.86C 9.44017 32.5116 9.96852 33.04 10.6202 33.04L 20.0602 33.04L 20.0602 44.8499C 20.0602 46.7963 21.6481 48.38 23.6002 48.38C 25.5522 48.38 27.1402 46.7963 27.1402 44.8499L 27.1402 33.04L 30.6802 33.04L 30.6802 44.8499C 30.6802 46.7963 32.2681 48.38 34.2202 48.38C 36.1722 48.38 37.7602 46.7963 37.7602 44.8499L 37.7602 33.04L 41.3002 33.04L 41.3002 44.8499C 41.3002 46.7963 42.8881 48.38 44.8402 48.38C 46.7922 48.38 48.3802 46.7963 48.3802 44.8499L 48.3802 14.1502C 48.3802 12.2036 46.7922 10.62 44.8402 10.62ZM 46.0202 44.8499C 46.0202 45.506 45.502 46.02 44.8402 46.02C 44.1893 46.02 43.6602 45.4951 43.6602 44.8499L 43.6602 31.86C 43.6602 31.2083 43.1318 30.68 42.4802 30.68L 36.5802 30.68C 35.9285 30.68 35.4002 31.2083 35.4002 31.86L 35.4002 44.8499C 35.4002 45.506 34.882 46.02 34.2202 46.02C 33.5693 46.02 33.0402 45.4951 33.0402 44.8499L 33.0402 31.86C 33.0402 31.2083 32.5118 30.68 31.8602 30.68L 25.9602 30.68C 25.3085 30.68 24.7802 31.2083 24.7802 31.86L 24.7802 44.8499C 24.7802 45.506 24.262 46.02 23.6002 46.02C 22.9493 46.02 22.4202 45.4951 22.4202 44.8499L 22.4202 31.86C 22.4202 31.2083 21.8918 30.68 21.2402 30.68L 11.8002 30.68L 11.8002 18.8706C 11.8002 18.2143 12.3184 17.7 12.9802 17.7C 13.631 17.7 14.1602 18.2252 14.1602 18.8706L 14.1602 25.96C 14.1602 26.6116 14.6885 27.14 15.3402 27.14L 21.2402 27.14C 21.8918 27.14 22.4202 26.6116 22.4202 25.96L 22.4202 14.1502C 22.4202 13.4939 22.9384 12.98 23.6002 12.98C 24.251 12.98 24.7802 13.5049 24.7802 14.1502L 24.7802 25.96C 24.7802 26.6116 25.3085 27.14 25.9602 27.14L 31.8602 27.14C 32.5118 27.14 33.0402 26.6116 33.0402 25.96L 33.0402 14.1502C 33.0402 13.4939 33.5584 12.98 34.2202 12.98C 34.871 12.98 35.4002 13.5049 35.4002 14.1502L 35.4002 25.96C 35.4002 26.6116 35.9285 27.14 36.5802 27.14L 42.4802 27.14C 43.1318 27.14 43.6602 26.6116 43.6602 25.96L 43.6602 14.1502C 43.6602 13.4939 44.1784 12.98 44.8402 12.98C 45.491 12.98 46.0202 13.5049 46.0202 14.1502L 46.0202 44.8499Z"/>
</defs>
</svg>
