<svg width="73" height="79" viewBox="0 0 73 79" version="1.1" xmlns="http://www.w3.org/2000/svg" xmlns:xlink="http://www.w3.org/1999/xlink">
<title>Icon-shield</title>
<desc>Created using Figma</desc>
<g id="Canvas" transform="translate(-3833 258)">
<g id="Icon-shield">
<use xlink:href="#path0_fill" transform="translate(3833 -258)" fill="#FFFFFF"/>
<use xlink:href="#path1_fill" transform="translate(3833 -258)" fill="#FFFFFF"/>
</g>
</g>
<defs>
<path id="path0_fill" d="M 36.5004 79C 36.2457 79 35.9907 78.9605 35.7452 78.8814C 27.4921 76.2268 20.4657 71.1349 14.8607 63.7475C 10.4481 57.9314 6.91479 50.6927 4.35971 42.2324C 0.0495028 27.9624 0 15.25 0 14.7159C 0 13.4359 0.968274 12.365 2.23728 12.2419C 2.42836 12.2233 21.6518 10.2417 35.046 0.474278C 35.9133 -0.158507 37.0877 -0.157761 37.955 0.474527C 51.3455 10.2417 70.5714 12.2233 70.764 12.2422C 72.032 12.3665 73 13.4369 73 14.7159C 73 15.25 72.9505 27.9624 68.6405 42.2326C 66.0852 50.6929 62.5522 57.9317 58.1395 63.7478C 52.5348 71.1352 45.5084 76.227 37.2553 78.8817C 37.0098 78.9605 36.7551 79 36.5004 79ZM 5.02131 16.8964C 5.227 21.0679 6.02671 30.675 9.13103 40.9032C 14.4291 58.3574 23.6356 69.453 36.5001 73.896C 49.3946 69.4431 58.6118 58.3097 63.9031 40.7898C 66.9864 30.5813 67.7775 21.0472 67.9802 16.8966C 62.4349 16.0841 48.0707 13.3345 36.4999 5.51717C 24.9281 13.3338 10.5669 16.0839 5.02131 16.8964Z"/>
<path id="path1_fill" d="M 45.823 29.1374L 32.7544 42.1451L 27.1777 36.5941C 26.1203 35.5419 24.4058 35.5419 23.3487 36.5941C 22.2913 37.647 22.2913 39.3532 23.3487 40.4058L 30.8399 47.8625C 31.3684 48.3886 32.0616 48.6516 32.7544 48.6516C 33.4472 48.6516 34.1404 48.3886 34.6689 47.8625L 49.6516 32.9491C 50.7094 31.8965 50.7094 30.1899 49.652 29.1377C 48.5949 28.0852 46.8804 28.0848 45.823 29.1374Z"/>
</defs>
</svg>
