<svg width="97" height="76" viewBox="0 0 97 76" version="1.1" xmlns="http://www.w3.org/2000/svg" xmlns:xlink="http://www.w3.org/1999/xlink">
<title>Icon-car-check</title>
<desc>Created using Figma</desc>
<g id="Canvas" transform="translate(-3477 257)">
<g id="Icon-car-check">
<use xlink:href="#path0_fill" transform="translate(3477 -257)" fill="#FFFFFF"/>
<use xlink:href="#path1_fill" transform="translate(3477 -257)" fill="#FFFFFF"/>
<use xlink:href="#path2_fill" transform="translate(3477 -257)" fill="#FFFFFF"/>
<use xlink:href="#path3_fill" transform="translate(3477 -257)" fill="#FFFFFF"/>
<use xlink:href="#path4_fill" transform="translate(3477 -257)" fill="#FFFFFF"/>
<use xlink:href="#path5_fill" transform="translate(3477 -257)" fill="#FFFFFF"/>
</g>
</g>
<defs>
<path id="path0_fill" d="M 60.0867 50.2174L 54.5007 50.2174C 53.6804 50.2174 53.0154 50.8866 53.0154 51.7125C 53.0154 52.5385 53.6804 53.2077 54.5007 53.2077L 60.0867 53.2077C 60.907 53.2077 61.572 52.5385 61.572 51.7125C 61.572 50.8866 60.9068 50.2174 60.0867 50.2174Z"/>
<path id="path1_fill" d="M 19.1185 61.3009C 16.4905 61.3009 14.3523 63.4532 14.3523 66.0985C 14.3523 68.7438 16.4905 70.8961 19.1185 70.8961C 21.7466 70.8961 23.8846 68.7438 23.8846 66.0985C 23.8846 63.4532 21.7466 61.3009 19.1185 61.3009ZM 19.1185 67.906C 18.1285 67.906 17.3227 67.0953 17.3227 66.0985C 17.3227 65.1017 18.1283 64.291 19.1185 64.291C 20.1088 64.291 20.9142 65.1017 20.9142 66.0985C 20.914 67.0953 20.1086 67.906 19.1185 67.906Z"/>
<path id="path2_fill" d="M 82.6535 61.3009C 80.0254 61.3009 77.8875 63.4532 77.8875 66.0985C 77.8875 68.7438 80.0254 70.8961 82.6535 70.8961C 85.2816 70.8961 87.4196 68.7438 87.4196 66.0985C 87.4196 63.4532 85.2816 61.3009 82.6535 61.3009ZM 82.6535 67.906C 81.6634 67.906 80.8579 67.0953 80.8579 66.0985C 80.8579 65.1017 81.6632 64.291 82.6535 64.291C 83.6438 64.291 84.4491 65.1017 84.4491 66.0985C 84.449 67.0953 83.6436 67.906 82.6535 67.906Z"/>
<path id="path3_fill" d="M 96.8873 56.9349C 96.5093 53.9436 95.1947 51.0756 93.149 48.8685C 91.1952 46.7605 88.6186 45.2592 85.8244 44.6219L 79.9214 38.9459C 76.2284 35.3949 71.382 33.4392 66.2748 33.4392L 54.8265 33.4392C 48.4857 33.4392 42.1319 34.9432 36.4521 37.7879C 35.7176 38.156 35.4186 39.0535 35.7839 39.7924C 36.1495 40.5318 37.0411 40.8329 37.7752 40.4651C 43.0464 37.8249 48.9425 36.4293 54.8265 36.4293L 62.3995 36.4293L 63.5965 45.3409L 26.9082 46.7738L 32.4785 43.4853C 33.1861 43.0674 33.4233 42.1515 33.0082 41.4392C 32.5933 40.7271 31.6834 40.4879 30.9756 40.9058L 20.6165 47.0217L 15.3867 47.2559C 13.7288 47.3301 12.1306 47.6934 10.6462 48.2997C 10.6066 48.3124 10.567 48.3252 10.528 48.3414C 7.4668 49.6186 4.98478 51.8899 3.42862 54.7579C 3.09802 55.3671 2.81214 56 2.56888 56.6496C 2.0835 57.9458 1.72657 59.3036 1.32001 60.6268C 0.982974 61.7239 0.645748 62.8212 0.308712 63.9185C 0.272337 64.0372 0.235773 64.1558 0.199398 64.2744C -0.216072 65.6263 0.0243437 67.0549 0.858693 68.1938C 1.69304 69.3327 2.9781 69.9859 4.38384 69.9859L 10.0727 69.9859C 11.5766 73.5187 15.0646 76 19.1181 76C 23.1717 76 26.6597 73.5185 28.1635 69.9859C 28.1635 69.9859 33.5324 69.9859 33.5383 69.9859L 73.6075 69.9859C 75.1116 73.5187 78.5996 76 82.6529 76C 86.7065 76 90.1945 73.5185 91.6983 69.9859L 95.5147 69.9859C 96.335 69.9859 97 69.3167 97 68.4907L 97 58.7187C 97.0002 58.1218 96.9621 57.5261 96.8873 56.9349ZM 89.8809 49.8734C 89.9021 49.8909 89.9234 49.9085 89.9442 49.9262C 91.8315 51.5121 93.1763 53.7165 93.7333 56.1263C 91.5472 55.7395 89.8809 53.8143 89.8809 51.5045L 89.8809 49.8734ZM 66.275 36.4297C 70.6142 36.4297 74.7321 38.0911 77.8696 41.1083L 81.5427 44.64L 66.5785 45.2245L 65.3974 36.4297L 66.275 36.4297ZM 5.59349 57.0949C 5.65753 56.9467 5.72402 56.7998 5.79488 56.6549C 5.79639 56.6513 5.79829 56.6478 5.79999 56.6444C 6.69724 54.8089 8.06054 53.2693 9.71598 52.1588L 9.71598 52.5717C 9.71598 54.9969 7.87886 56.9982 5.53192 57.2398C 5.55219 57.1914 5.57265 57.1431 5.59349 57.0949ZM 24.7004 70.1154C 23.9992 71.1007 23.0417 71.8948 21.945 72.396C 21.0595 72.8007 20.0908 73.0095 19.1185 73.0095C 17.6294 73.0095 16.1636 72.5129 14.9776 71.6065C 13.7561 70.673 12.863 69.3348 12.4778 67.8395C 12.3319 67.2727 12.2527 66.6842 12.2527 66.0981C 12.2527 62.2874 15.3327 59.1871 19.1183 59.1871C 22.904 59.1871 25.9841 62.2874 25.9841 66.1027C 25.9831 67.5341 25.5283 68.9526 24.7004 70.1154ZM 28.9142 66.9958C 28.9411 66.6975 28.9547 66.3977 28.9547 66.0985C 28.9547 60.639 24.5422 56.1972 19.1185 56.1972C 13.6949 56.1972 9.28213 60.639 9.28213 66.0985C 9.28213 66.1016 9.28232 66.1044 9.28232 66.1075C 9.28232 66.3947 9.29615 66.7023 9.32249 66.9956L 4.38422 66.9956C 3.9318 66.9956 3.51823 66.7852 3.24996 66.4187C 2.98151 66.0524 2.90421 65.5926 3.03778 65.1576L 4.54961 60.2371C 4.71746 60.2484 4.8857 60.2545 5.05412 60.2545C 9.26262 60.2545 12.6866 56.808 12.6866 52.5715L 12.6866 50.8538C 12.6866 50.8158 12.6847 50.7779 12.6839 50.7399C 13.5912 50.4583 14.5419 50.2866 15.5189 50.243C 15.5189 50.243 21.1076 49.9928 21.1081 49.9928L 29.7758 49.6543C 29.2177 53.194 28.4453 60.9542 31.0565 66.9956L 28.9142 66.9958ZM 53.0303 66.9956L 34.3679 66.9956C 31.1952 61.339 32.2896 52.6108 32.8121 49.5356L 63.9242 48.3205C 64.1 51.416 64.1017 59.0601 60.3587 63.5468C 58.5551 65.7083 56.1576 66.8362 53.0303 66.9956ZM 89.5043 66.5484C 89.2671 70.1106 86.2359 73.0099 82.6535 73.0099C 78.9474 73.0099 75.7878 69.8285 75.7878 66.0987C 75.7878 62.288 78.8677 59.1877 82.6533 59.1877C 86.439 59.1877 89.5189 62.288 89.5189 66.0987C 89.5191 66.2495 89.5142 66.3994 89.5043 66.5484ZM 94.0298 66.9956L 92.4493 66.9956C 92.9482 61.4754 88.648 56.4913 83.159 56.2102C 82.9915 56.2016 82.8231 56.1972 82.6535 56.1972C 77.2299 56.1972 72.8173 60.6388 72.8173 66.0985C 72.8173 66.3943 72.8312 66.6985 72.8577 66.9956L 61.1254 66.9956C 61.6637 66.5358 62.1697 66.0262 62.6395 65.4623C 67.0576 60.1582 67.1036 51.7404 66.8983 48.2045L 84.9747 47.4985C 85.708 47.6524 86.4128 47.8759 87.0829 48.162C 86.9692 48.6925 86.9101 49.2355 86.9101 49.787L 86.9101 51.5047C 86.9101 55.5673 90.0594 58.9016 94.0296 59.1682L 94.0298 66.9956Z"/>
<path id="path4_fill" d="M 56.4384 7.33192C 55.8583 6.74817 54.9179 6.74817 54.3382 7.33192L 43.6606 18.0803L 42.3676 14.7109C 42.0719 13.941 41.2123 13.5585 40.4469 13.8552C 39.6817 14.1527 39.3011 15.0183 39.5969 15.7886L 41.7121 21.3002C 41.893 21.7716 42.2986 22.1191 42.7903 22.224C 42.8924 22.2457 42.9954 22.2562 43.0974 22.2562C 43.4871 22.2562 43.8662 22.1018 44.1477 21.8186L 56.4386 9.44628C 57.0185 8.86234 57.0185 7.91586 56.4384 7.33192Z"/>
<path id="path5_fill" d="M 48.185 0C 40.2009 0 33.7053 6.53857 33.7053 14.5755C 33.7053 22.6123 40.2011 29.1508 48.185 29.1508C 56.1689 29.1508 62.6647 22.6123 62.6647 14.5755C 62.6647 6.53838 56.1693 0 48.185 0ZM 48.185 26.1602C 41.8389 26.1602 36.6759 20.963 36.6759 14.5751C 36.6759 8.18723 41.8391 2.9899 48.185 2.9899C 54.5309 2.9899 59.694 8.18703 59.694 14.5751C 59.6942 20.9632 54.5313 26.1602 48.185 26.1602Z"/>
</defs>
</svg>
