<svg width="73" height="76" viewBox="0 0 73 76" version="1.1" xmlns="http://www.w3.org/2000/svg" xmlns:xlink="http://www.w3.org/1999/xlink">
<title>Icon-expert</title>
<desc>Created using Figma</desc>
<g id="Canvas" transform="translate(-3129 257)">
<g id="Icon-expert">
<use xlink:href="#path0_fill" transform="translate(3129 -257)" fill="#fff"/>
</g>
</g>
<defs>
<path id="path0_fill" d="M 66.985 57.3502L 66.7122 57.2736C 62.7611 56.216 61.4247 55.2046 59.6662 54.5391C 53.4271 52.1756 51.8038 50.471 51.3887 49.6661C 51.3747 49.6382 51.363 49.6059 51.349 49.578L 51.3093 44.1554C 54.6468 39.7127 57.0329 34.1684 57.0329 28.4244C 57.0329 28.4244 59.286 18.8769 53.8982 9.89173L 53.8958 9.8512C 53.8912 9.85239 53.8842 9.85239 53.8748 9.85358C 52.7087 7.9135 51.1855 6.00118 49.2031 4.21637C 47.1297 2.35066 42.0149 0 35.8458 0C 31.6219 0 26.9037 1.1017 22.3299 4.21652C 13.4576 10.2596 14.3532 25.4999 14.3532 25.4999C 14.3532 25.4999 14.9736 25.6553 16.0908 25.8014C 16.0092 26.6549 15.9673 27.5294 15.9673 28.4246C 15.9673 34.1684 18.3532 39.7128 21.6909 44.1556L 21.6512 49.5781C 21.6371 49.606 21.6255 49.6384 21.6114 49.6663C 21.1963 50.4711 19.573 52.1758 13.334 54.5392C 11.5754 55.2048 10.239 56.2161 6.28799 57.2737L 6.01513 57.3503C 2.41862 58.5332 0 61.8497 0 65.5932L 0 76L 73 76L 73 65.5932C 73 61.8497 70.5814 58.5331 66.985 57.3502ZM 52.3658 13.8336C 53.2428 15.8178 53.8328 17.9713 54.1174 20.2396C 54.1617 20.5945 54.199 20.9401 54.2269 21.2787C 53.7139 20.3244 53.1519 19.5114 52.5197 18.8005C 51.8223 18.0142 51.0411 17.3706 50.1898 16.8742C 50.8334 15.3226 51.6451 14.3913 52.3658 13.8336ZM 18.1667 17.591C 18.6308 15.2577 19.3166 13.1959 20.2122 11.4646C 21.2478 9.45369 22.5656 7.89391 24.1281 6.82931C 27.6966 4.39865 31.6406 3.16706 35.8458 3.16706C 41.2709 3.16706 45.6067 5.25098 47.0667 6.56495C 48.5502 7.8997 49.8166 9.39105 50.8569 11.0181C 49.5927 11.86 48.1933 13.3073 47.1927 15.7912C 46.6703 15.7019 46.1316 15.6567 45.5811 15.6567C 43.2044 15.6567 40.6435 16.4558 37.7514 18.099C 30.7847 22.0569 24.3404 22.8885 20.1608 22.8885C 19.1603 22.8885 18.2809 22.8398 17.551 22.7748C 17.614 21.389 17.7772 19.5566 18.1667 17.591ZM 29.0681 72.8317L 3.18378 72.8317L 3.18378 65.593C 3.18378 63.232 4.70215 61.1423 6.96449 60.3746L 7.14182 60.3235C 10.1202 59.5257 11.7646 58.744 13.0869 58.1131C 13.5977 57.8719 14.0385 57.6586 14.4677 57.4962C 16.8187 56.6056 19.7527 55.3764 21.9101 53.8132L 28.6716 57.3294L 29.8401 56.346L 30.6635 60.4372L 29.0681 72.8317ZM 24.2471 51.4544C 24.3171 51.3407 24.3847 51.2271 24.4453 51.1112C 24.5013 51.0022 24.5433 50.9095 24.5643 50.8538L 24.8302 50.2692L 24.8488 47.769C 26.5654 49.4576 28.3917 50.863 30.1922 51.8975L 28.2493 53.5349L 24.2471 51.4544ZM 32.2774 72.8317L 33.7047 61.75L 39.2907 61.75L 40.9023 72.8317L 32.2774 72.8317ZM 32.6179 54.0081L 33.3923 53.3541C 34.4815 53.7112 35.5286 53.9015 36.5013 53.9015C 37.5229 53.9015 38.6308 53.6881 39.7828 53.2962L 40.4172 53.8319L 39.4632 58.5817L 33.5369 58.5817L 32.6179 54.0081ZM 36.5013 50.7333C 35.1811 50.7333 33.4482 50.1395 31.6197 49.0633C 29.5742 47.8527 27.5264 46.1225 25.6979 44.049C 21.537 39.3349 19.151 33.6398 19.151 28.4247C 19.1509 27.6152 19.1906 26.8209 19.2676 26.0426C 19.5569 26.0508 19.853 26.0542 20.1608 26.0542C 24.8209 26.0542 31.8063 25.1241 39.3304 20.8485C 41.8633 19.4094 43.9112 18.8226 45.5811 18.8226C 49.5903 18.8226 51.4072 22.2065 52.4988 25.2681C 52.872 26.3163 53.3409 27.0389 53.8306 27.5329C 53.8423 27.8274 53.8493 28.1255 53.8493 28.4247C 53.8493 33.6398 51.4633 39.3349 47.3024 44.049C 45.4739 46.1225 43.426 47.8551 41.3806 49.0633C 39.552 50.1395 37.819 50.7333 36.5013 50.7333ZM 48.8135 51.5497L 44.9955 53.535L 42.9523 51.814C 44.7062 50.7866 46.4812 49.4111 48.151 47.7691L 48.1698 50.2694L 48.4335 50.8539C 48.4567 50.905 48.4964 51 48.5547 51.1113C 48.6317 51.2598 48.7202 51.4058 48.8135 51.5497ZM 58.9104 72.8317L 49.3571 72.8317L 49.3571 69.6683L 58.9104 69.6683L 58.9104 72.8317ZM 69.8164 72.8317L 62.0963 72.8317L 62.0963 66.5L 57.3196 66.5C 57.3196 65.6256 56.606 64.9183 55.7266 64.9183L 52.543 64.9183C 51.6637 64.9183 50.95 65.6257 50.95 66.5L 46.1734 66.5L 46.1734 72.8317L 44.1209 72.8317L 42.325 60.4929L 43.195 56.1696L 44.5733 57.3292L 51.1926 53.885C 53.3407 55.4157 56.2212 56.6219 58.5349 57.4986C 58.9616 57.6586 59.4024 57.8721 59.9132 58.1133C 61.2356 58.7441 62.8799 59.5258 65.8583 60.3237L 66.0357 60.3747C 68.3004 61.1424 69.8164 63.2321 69.8164 65.5932L 69.8164 72.8317Z"/>
</defs>
</svg>
